PathFileType	4	(X/Y/Z)	D:\TRACE\spotREDO_2-26-24\spot_Both_Motion_3_5-v60.trc
DataRate	CameraRate	NumFrames	NumMarkers	Units	OrigDataRate	OrigDataStartFrame	OrigNumFrames
100.00	100.00	      38	9	mm	100.00	1	      7000
Frame#	Time	front left toe			Front right toe			aft left toe			aft right toe			Arm			FL body			FR body			AL Body			AR Body			
		X1	Y1	Z1	X2	Y2	Z2	X3	Y3	Z3	X4	Y4	Z4	X5	Y5	Z5	X6	Y6	Z6	X7	Y7	Z7	X8	Y8	Z8	X9	Y9	Z9	

1	0.000	-184.76419	50.86357	-130.88069	280.64117	65.56551	-170.58130	-283.76923	-41.68331	381.32422	221.34839	-38.84946	426.86929	43.68490	981.26898	-378.63022	-79.73653	648.09747	-271.48895	75.95596	651.28473	-258.37534	-156.99132	506.87604	598.70038	-8.46794	498.05420	611.30908	
2	0.010	-184.71284	50.99109	-130.92651	280.73270	65.58765	-170.57555	-283.73801	-41.65828	381.30389	221.38794	-38.89608	426.85382	43.91182	981.59509	-379.02139	-78.84187	648.53088	-271.71094	76.50181	651.92242	-258.66968	-156.57968	507.24048	598.25360	-8.04869	498.75436	611.20886	
3	0.020	-184.66177	50.99684	-130.98532	280.88800	65.47362	-170.60471	-283.67456	-41.61705	381.32025	221.47461	-38.93345	426.81992	43.84752	981.76294	-379.50406	-78.09979	649.20703	-271.85461	77.40245	652.38409	-258.75897	-156.44493	508.40863	598.42236	-7.49213	499.25061	611.08490	
4	0.030	-184.65463	51.00069	-131.01109	280.94153	65.32925	-170.59068	-283.63220	-41.56134	381.32092	221.53244	-38.97632	426.83176	43.78928	982.07367	-380.14871	-77.14698	649.71875	-272.01871	78.14857	652.85822	-258.93381	-156.12236	509.10803	598.42139	-6.95796	499.87750	610.90387	
5	0.040	-184.62482	51.04272	-131.05356	281.03873	65.24719	-170.59174	-283.52444	-41.55110	381.28796	221.65359	-39.05443	426.78519	44.06740	982.52106	-380.79477	-76.53719	650.21765	-272.22528	78.90270	653.27155	-259.10406	-153.72545	508.26315	596.92780	-6.32499	500.35019	610.75323	
6	0.050	-184.59245	51.08412	-131.10870	279.38577	64.01923	-171.32806	-283.45535	-41.46687	381.25317	221.73569	-39.11675	426.75351	44.46179	982.98730	-381.24197	-75.40302	650.57092	-272.34470	79.68697	653.60474	-259.24182	-153.17528	508.83350	596.74951	-5.77739	500.81277	610.71588	
7	0.060	-184.54620	51.25664	-131.25223	279.45953	63.97017	-171.26970	-283.36267	-41.40799	381.23160	221.84230	-39.19034	426.77542	44.79506	983.35492	-381.68460	-74.62888	651.26410	-272.48819	80.83488	654.03259	-259.25787	-152.73595	509.38297	596.57599	-4.94571	501.30634	610.62000	
8	0.070	-184.53201	51.36705	-131.32135	279.57614	63.53147	-171.48997	-283.31015	-41.34061	381.15286	221.92453	-39.22731	426.69543	45.01245	983.61316	-382.23904	-73.88418	651.61145	-272.58148	81.70844	654.47156	-259.41962	-152.42131	510.15466	596.55865	-4.39018	501.66238	610.51685	
9	0.080	-184.51009	51.55800	-131.39424	279.61844	63.98393	-171.24538	-283.30371	-41.27780	381.14362	221.92970	-39.28930	426.72070	45.28262	983.88293	-382.72195	-73.01377	652.29608	-272.67126	82.35416	654.81769	-259.39618	-151.65446	510.83090	596.56952	-3.89963	502.17422	610.29205	
10	0.090	-184.41776	51.63816	-131.44861	279.65927	63.43272	-171.53862	-283.21536	-41.35448	381.08426	221.97990	-39.36708	426.63022	45.53384	984.27905	-383.16943	-71.98261	652.74701	-272.90445	83.31044	655.27533	-259.41455	-151.45369	511.29645	596.40039	-3.45674	502.55722	610.24915	
11	0.100	-184.08333	51.21624	-131.25893	279.72015	63.35671	-171.52881	-283.20920	-41.33231	381.07339	222.11247	-39.42545	426.62491	45.66082	984.72131	-383.74451	-71.18996	653.31128	-272.87375	84.28410	655.65155	-259.49380	-151.03497	511.66022	596.30902	-2.73735	502.81833	610.16846	
12	0.110	-183.90424	51.35319	-131.41185	279.78275	63.26134	-171.54979	-283.16003	-41.26176	381.05954	222.13988	-39.42842	426.64001	45.74229	985.12714	-384.47549	-70.23906	653.74738	-272.98584	85.26694	656.07159	-259.47552	-150.50821	511.93729	596.15784	-2.18059	503.12344	610.10242	
13	0.120	-183.78882	51.47699	-131.48158	280.01596	63.17260	-171.42627	-283.12375	-41.12965	380.90778	222.16995	-39.40046	426.66425	45.88469	985.39954	-384.85321	-69.34916	654.22522	-273.06625	86.20613	656.56055	-259.45660	-150.37849	512.35968	596.12518	-1.64136	503.49973	609.98438	
14	0.130	-183.78925	51.67540	-131.59889	280.16693	63.08244	-171.43355	-283.09915	-40.94056	380.85355	222.14688	-39.40353	426.64505	46.11402	985.72687	-385.39288	-68.21405	654.88348	-273.07321	86.90726	657.05682	-259.56989	-147.95567	512.17566	596.04968	-1.21986	503.82391	609.90002	
15	0.140	-183.71069	51.64741	-131.64938	280.15979	63.05902	-171.37552	-283.09467	-40.91407	380.79129	222.12442	-39.46165	426.60394	46.03669	986.09729	-386.20554	-67.44703	655.04108	-272.94342	88.00289	657.35492	-259.52206	-147.70161	513.19861	596.33038	-0.75233	504.06992	609.92944	
16	0.150	-183.62224	51.60567	-131.67578	280.23068	63.03996	-171.37314	-283.05768	-40.86408	380.72427	222.17342	-39.51239	426.62756	46.19361	986.53809	-386.65201	-66.29452	655.40753	-273.10132	89.18242	657.76172	-259.32086	-147.26978	513.38458	596.20087	-0.19167	504.45523	609.88428	
17	0.160	-183.58673	51.65225	-131.72820	280.22467	62.89980	-171.42503	-283.01337	-40.83494	380.72452	222.21346	-39.49858	426.64700	46.37067	986.99731	-387.07468	-65.50668	655.99158	-273.25296	89.90072	658.17175	-259.36487	-146.58582	513.57965	596.00122	0.41472	504.85144	609.86792	
18	0.170	-183.50172	51.75504	-131.81067	280.28738	62.81366	-171.41399	-282.97803	-40.70905	380.75067	222.28844	-39.52462	426.61295	46.63276	987.36157	-387.77072	-64.61442	656.20233	-273.32547	90.58813	658.62891	-259.41083	-146.00764	513.87299	595.89349	0.80648	505.12051	609.78101	
19	0.180	-183.48203	51.86900	-131.84068	280.40335	62.70247	-171.40347	-282.94516	-40.65136	380.73825	222.37640	-39.59234	426.59949	46.79237	987.68030	-388.33710	-63.83057	656.65875	-273.25873	91.71426	658.98560	-259.41776	-145.17577	514.32361	595.80505	1.24260	505.40417	609.77551	
20	0.190	-183.42355	51.97769	-131.92900	280.64508	62.73643	-171.34380	-283.01999	-40.51544	380.65796	222.43245	-39.63758	426.60300	46.94888	988.13910	-388.78549	-62.72029	656.99933	-273.40189	92.82613	659.33807	-259.25500	-144.59218	514.48816	595.72552	1.97770	505.60712	609.79132	
21	0.200	-183.39989	52.11611	-131.99500	280.52963	62.60907	-171.38663	-282.87213	-40.67558	380.70297	222.49120	-39.72463	426.54697	46.96593	988.60083	-389.38007	-61.85878	657.23126	-273.20645	93.57708	659.89301	-259.26785	-144.42302	514.61646	595.75684	2.65765	505.84598	609.89191	
22	0.210	-183.33217	52.14508	-132.06201	280.58362	62.61914	-171.39006	-282.85553	-40.62585	380.70889	222.56693	-39.79476	426.53568	47.00809	989.04175	-390.03885	-60.99451	657.57813	-273.28256	94.31178	660.31146	-259.19070	-143.86391	514.76031	595.69690	3.34634	506.06323	609.82068	
23	0.220	-183.26016	52.20995	-132.08362	280.72748	62.57190	-171.38190	-282.81927	-40.59739	380.66724	222.61792	-39.84168	426.57382	47.02505	989.65204	-390.53912	-60.32662	657.99622	-273.30847	94.93460	660.65350	-259.17593	-142.92030	514.15869	595.21594	3.80069	506.28235	609.80225	
24	0.230	-183.21754	52.27274	-132.14070	280.74329	62.54413	-171.35831	-282.82748	-40.53085	380.68143	222.61673	-39.96425	426.67520	47.02884	990.11304	-390.96890	-59.36498	658.28918	-273.48367	96.11109	661.20746	-258.94983	-142.29570	514.32800	595.21722	4.30155	506.64874	609.83923	
25	0.240	-183.14476	52.34364	-132.22075	280.85706	62.59753	-171.30386	-282.77490	-40.41924	380.67126	222.61655	-39.93915	426.62881	47.01542	990.54211	-391.74426	-58.59226	658.59399	-273.39398	96.74255	661.61517	-258.87332	-141.78964	514.46014	595.20819	4.92332	506.84698	609.82318	
26	0.250	-183.10092	52.37932	-132.23860	280.85916	62.54172	-171.29268	-282.75977	-40.45437	380.67648	222.65831	-39.96516	426.68323	47.31573	990.95874	-392.32773	-57.64544	658.77692	-273.39822	97.51691	661.86182	-258.94385	-141.11388	514.36322	594.92450	5.52708	507.27448	609.82257	
27	0.260	-183.06874	52.46168	-132.29597	280.96399	62.52654	-171.26334	-282.65219	-40.51586	380.62015	222.65430	-40.02596	426.68652	47.36844	991.52155	-392.83142	-57.02648	658.93311	-273.38879	98.12619	662.20026	-258.83524	-140.63512	514.59277	594.75867	5.86046	507.46078	609.91150	
28	0.270	-183.01830	52.65872	-132.40613	280.99829	62.47471	-171.28571	-282.65903	-40.40062	380.66293	222.72984	-40.07746	426.64642	47.26704	992.04645	-393.63983	-56.02653	659.07397	-273.37003	99.14565	662.61279	-258.61017	-140.43915	514.98145	594.88458	6.28550	507.68918	609.94379	
29	0.280	-183.00513	52.75431	-132.44597	281.13077	62.48561	-171.21265	-282.62872	-40.40199	380.55325	222.78604	-40.08506	426.70340	47.38271	992.47168	-394.20450	-55.30084	659.35962	-273.41373	99.98439	662.87921	-258.58572	-139.68578	515.15704	594.87775	6.90764	507.76843	609.98059	
30	0.290	-182.99580	52.84098	-132.51698	281.13593	62.52003	-171.21552	-282.60605	-40.20377	380.61444	222.77100	-40.11586	426.71362	47.57069	993.12085	-394.71039	-54.79952	659.61676	-273.38388	100.40341	663.25555	-258.82742	-139.08055	515.23590	594.85199	7.62497	508.04126	609.82526	
31	0.300	-182.95883	52.85896	-132.51837	281.13623	62.33624	-171.34599	-282.50241	-40.21015	380.48172	222.81912	-40.12163	426.70822	47.65305	993.71631	-395.23071	-53.95796	659.79846	-273.32709	101.28981	663.63440	-258.68668	-138.75906	515.27728	594.77307	8.22386	508.22098	610.06055	
32	0.310	-182.96280	52.90479	-132.52257	281.17685	62.29936	-171.30324	-282.46307	-40.06619	380.54578	222.93289	-40.18525	426.71024	47.53932	994.31573	-396.17474	-53.32822	660.04370	-273.24234	102.00011	663.84747	-258.56528	-138.23326	515.28735	594.82617	8.56513	508.35657	610.03687	
33	0.320	-182.97346	52.92843	-132.52023	281.16254	62.26486	-171.28383	-282.42581	-40.21571	380.41333	222.89082	-40.29089	426.72311	47.55053	994.54822	-396.53503	-52.54007	660.13965	-273.32559	103.49984	664.32990	-258.52737	-137.81285	515.36139	594.93677	9.00560	508.41119	610.02716	
34	0.330	-182.93137	52.95608	-132.50607	281.33078	62.25495	-171.29224	-282.36655	-40.16213	380.33594	223.02649	-40.31084	426.69583	47.68383	995.04504	-397.06808	-51.72775	660.38147	-273.29108	104.00665	664.68079	-258.58679	-137.19135	515.52899	595.01331	9.58771	508.64621	610.01782	
35	0.340	-182.90640	53.02633	-132.51970	281.29181	62.21503	-171.27354	-282.33914	-39.99718	380.22845	223.07536	-40.33898	426.76874	47.67627	995.85730	-397.88074	-51.34209	660.62067	-273.10693	104.63725	665.05060	-258.50784	-136.70041	515.64478	594.92627	10.08738	508.86868	610.02100	
36	0.350	-182.85689	53.08572	-132.54111	281.39868	62.16621	-171.26967	-282.36511	-39.93483	380.20038	223.08177	-40.34121	426.75961	47.75896	996.27826	-398.43832	-50.56133	660.79333	-272.96057	105.25722	665.28192	-258.42432	-136.10812	515.74597	594.84174	10.58009	509.06741	609.99268	
37	0.360	-182.77374	53.13570	-132.49089	281.40912	62.11913	-171.33054	-282.34125	-39.93855	380.23907	223.23701	-40.40112	426.80984	47.88156	996.64026	-398.90381	-50.02618	661.01154	-272.97464	105.12465	665.29150	-258.12134	-135.57759	515.72955	594.89099	10.87319	509.21164	610.10284	
38	0.370	-182.74870	53.16791	-132.52634	281.19879	62.26855	-171.26508	-282.25800	-39.92374	380.17325	223.24190	-40.45732	426.87567	48.04141	996.91315	-399.53976	-49.50978	661.18964	-273.14145	105.80903	665.47040	-257.92395	-135.15674	515.79132	595.04767	11.25071	509.34735	610.22412	
